<?xml version="1.0" encoding="UTF-8"?>
<svg id="Capa_1" data-name="Capa 1" xmlns="http://www.w3.org/2000/svg" viewBox="0 0 125 134">
  <defs>
    <style>
      .cls-1 {
        stroke-width: 0px;
      }
    </style>
  </defs>
  <path class="cls-1" d="m16.78,124c-1.11-.53-2.19-1.1-2.88-2.17-1.11-1.72-1.3-3.53-.36-5.37,1.01-1.96,2.71-2.89,4.87-2.93,3.07-.04,6.14-.01,9.21-.01.4,0,.8,0,1.3,0-.14-.53-.51-.75-.78-1.02-6.73-6.7-10.53-14.83-11.57-24.22-.46-4.19-.24-8.42-.24-12.63,0-2.59-.04-5.18.01-7.77.08-3.92,2.2-5.99,6.1-6.04.07,0,.15,0,.22,0,24.66,0,49.33-.02,73.99.01,6.74,0,12.37,2.51,16.28,8.13,4.05,5.81,4.79,12.15,1.88,18.62-3.01,6.7-8.32,10.46-15.67,11.3-1.88.21-3.77.14-5.65.15-.64,0-1.01.22-1.28.81-2.06,4.57-4.93,8.58-8.51,12.07-.1.1-.18.22-.32.38.38.31.79.19,1.16.19,3.11.01,6.21-.04,9.32.03,2.35.05,4.11,1.16,5.02,3.38.8,1.95.24,4.26-1.27,5.72-.66.63-1.47.98-2.27,1.35H16.78Zm80.91-34.62c.43-.04,1.03-.03,1.6-.16,4.53-1.05,7.24-5.46,6.46-9.8-.74-4.15-4.66-7.21-9-6.9-.67.05-.89.32-.9.96-.08,4.99.22,9.98-.22,14.96-.06.66.24.97.89.94.33-.01.67,0,1.16,0Z"/>
  <path class="cls-1" d="m68.19,10.28c2.1.05,3.68,1,4.64,2.87.98,1.92.83,3.81-.49,5.52-.88,1.14-1.94,2.14-2.81,3.28-1.72,2.24-1.67,5.62.02,7.88,1.56,2.08,3.61,3.71,5.22,5.75,2.58,3.25,3.89,6.93,3.78,11.09-.07,2.56-1.96,4.73-4.45,5.04-2.73.35-5.19-1.24-5.86-3.81-.1-.39-.23-.8-.21-1.2.13-2.44-1.12-4.21-2.72-5.84-2.01-2.07-4.12-4.06-5.5-6.64-3.62-6.76-2.55-14.8,2.71-20.46.6-.65,1.22-1.29,1.86-1.91,1.05-1.02,2.29-1.62,3.79-1.56Z"/>
  <path class="cls-1" d="m33.6,26.21c.05-4.98,1.62-9.01,4.81-12.4.61-.65,1.18-1.33,1.83-1.94,2.22-2.1,5.42-2.14,7.49-.11,2.07,2.02,2.1,5.24.05,7.49-.82.9-1.7,1.75-2.41,2.75-1.63,2.31-1.63,5.54.06,7.78,1.23,1.63,2.71,3.03,4.11,4.5,3.17,3.34,4.82,7.3,4.98,11.89.1,2.95-2.06,5.38-4.9,5.56-2.98.19-5.42-1.77-5.59-4.77-.14-2.49-1.14-4.41-2.85-6.16-1.65-1.68-3.35-3.33-4.69-5.31-1.98-2.92-2.79-6.16-2.89-9.29Z"/>
</svg>